# xmcd
#
# Track frame offsets:
#	150
#	13055
#	29131
#	45835
#	62000
#	83080
#	98521
#	109142
#	121810
#	136652
#	150988
#	167268
#	179884
#
# Disc length: 2600 seconds
# Revision: 1
# Processed by: cddbd v1.5.2PL0 Copyright (c) Steve Scherf et al.
# Submitted via: dBpowerAMP V12.0
#
DISCID=960a260d
DTITLE=Randy Travis - Songs Of The Season
DYEAR=2007
DGENRE=Country
TTITLE0=(There's No Place Like) Home For The Holidays
TTITLE1=Have Yourself A Merry Little Christmas
TTITLE2=O Holy Night
TTITLE3=Go Tell It On The Mountain
TTITLE4=Labor Of Love
TTITLE5=Angels We Have Heard On High
TTITLE6=Let It Snow, Let It Snow, Let It Snow
TTITLE7=Away In A Manger
TTITLE8=O Little Town Of Bethlehem
TTITLE9=Nothin's Gonna Bring Me Down (At Christmas Time)
TTITLE10=The First Noel
TTITLE11=Joy To The World
TTITLE12=Our King
EXTD=
EXTT0=
EXTT1=
EXTT2=
EXTT3=
EXTT4=
EXTT5=
EXTT6=
EXTT7=
EXTT8=
EXTT9=
EXTT10=
EXTT11=
EXTT12=
PLAYORDER=
